<svg width="15" height="12" viewBox="0 0 15 12" fill="none" xmlns="http://www.w3.org/2000/svg">
<path d="M15 7.02301V4.97701C15.0003 4.8925 14.9798 4.80877 14.9395 4.73063C14.8992 4.6525 14.84 4.58151 14.7653 4.52175C14.6906 4.46199 14.6019 4.41464 14.5042 4.38242C14.4066 4.3502 14.3019 4.33375 14.1963 4.33401H9.58377V0.643013C9.5841 0.558329 9.56345 0.474433 9.52302 0.39617C9.48259 0.317907 9.42317 0.246829 9.34821 0.187041C9.27324 0.127254 9.18421 0.079943 9.08626 0.0478413C8.9883 0.0157396 8.88337 -0.000516362 8.77752 1.25014e-05H6.22127C6.11562 -0.000251607 6.01096 0.0161998 5.91329 0.04842C5.81563 0.0806403 5.72689 0.127993 5.65219 0.187754C5.57749 0.247515 5.5183 0.318503 5.47803 0.396635C5.43775 0.474766 5.41719 0.558499 5.41752 0.643013V4.33301H0.803766C0.697912 4.33275 0.593041 4.34926 0.495212 4.38161C0.397383 4.41395 0.308536 4.46148 0.233802 4.52146C0.159068 4.58143 0.0999287 4.65266 0.0598016 4.73102C0.0196745 4.80938 -0.000645453 4.89333 1.56268e-05 4.97801V7.02401C1.56268e-05 7.38001 0.358766 7.66701 0.803766 7.66701H5.41627V11.358C5.41627 11.714 5.77627 12.001 6.22127 12.001H8.77877C8.88441 12.0013 8.98907 11.9848 9.08674 11.9526C9.1844 11.9204 9.27314 11.873 9.34784 11.8133C9.42254 11.7535 9.48173 11.6825 9.52201 11.6044C9.56228 11.5263 9.58285 11.4425 9.58252 11.358V7.66801H14.1963C14.3022 7.66828 14.4072 7.65173 14.5051 7.61932C14.603 7.58692 14.6919 7.53929 14.7667 7.47921C14.8414 7.41914 14.9005 7.34779 14.9406 7.26931C14.9806 7.19083 15.0008 7.10678 15 7.02201V7.02301Z" fill="#FF7E1B"/>
</svg>
