<svg width="15" height="4" viewBox="0 0 15 4" fill="none" xmlns="http://www.w3.org/2000/svg">
<path d="M14.1963 3.332C14.3018 3.33227 14.4064 3.31585 14.5039 3.28369C14.6015 3.25153 14.6902 3.20427 14.7649 3.14461C14.8396 3.08496 14.8988 3.01409 14.9391 2.93607C14.9795 2.85806 15.0002 2.77443 15 2.69V0.643003C15.0003 0.558489 14.9798 0.474757 14.9395 0.396626C14.8992 0.318494 14.84 0.247505 14.7653 0.187745C14.6906 0.127984 14.6019 0.0806309 14.5042 0.0484107C14.4066 0.0161904 14.3019 -0.000260978 14.1963 3.13019e-06H0.803754C0.698111 -0.000260978 0.593446 0.0161904 0.495782 0.0484107C0.398117 0.0806309 0.309382 0.127984 0.234681 0.187745C0.15998 0.247505 0.100789 0.318494 0.0605133 0.396626C0.020238 0.474757 -0.000326223 0.558489 3.91273e-06 0.643003V2.689C3.91273e-06 3.046 0.358754 3.332 0.803754 3.332H14.1963V3.332Z" fill="#FF7E1B"/>
</svg>
